<mxfile host="app.diagrams.net" modified="2023-10-10T08:12:51.556Z" agent="Mozilla/5.0 (Windows NT 10.0; Win64; x64) AppleWebKit/537.36 (KHTML, like Gecko) Chrome/117.0.0.0 Safari/537.36" etag="4YkRIiQH428mhDWr39ER" version="21.3.5" type="github">
  <diagram name="第 1 页" id="ce7atPpFhBoZxSeJRaeb">
    <mxGraphModel dx="1050" dy="534" grid="1" gridSize="10" guides="1" tooltips="1" connect="1" arrows="1" fold="1" page="1" pageScale="1" pageWidth="827" pageHeight="1169" math="0" shadow="0">
      <root>
        <mxCell id="0" />
        <mxCell id="1" parent="0" />
        <mxCell id="3k3tStpQkU_l6Oj5kPdA-1" value="main.cpp" style="swimlane;whiteSpace=wrap;html=1;" vertex="1" parent="1">
          <mxGeometry x="50" y="90" width="690" height="540" as="geometry" />
        </mxCell>
        <mxCell id="3k3tStpQkU_l6Oj5kPdA-2" value="加载样式表.css&lt;br&gt;设置窗口图标" style="rounded=0;whiteSpace=wrap;html=1;" vertex="1" parent="3k3tStpQkU_l6Oj5kPdA-1">
          <mxGeometry y="30" width="200" height="40" as="geometry" />
        </mxCell>
        <mxCell id="3k3tStpQkU_l6Oj5kPdA-3" value="medical3D" style="swimlane;whiteSpace=wrap;html=1;" vertex="1" parent="3k3tStpQkU_l6Oj5kPdA-1">
          <mxGeometry y="70" width="410" height="290" as="geometry" />
        </mxCell>
      </root>
    </mxGraphModel>
  </diagram>
</mxfile>
